<svg xmlns="http://www.w3.org/2000/svg" width="431" height="358" viewBox="0 0 431 358" fill="none"><path d="M215.289 357.002C334.189 357.002 430.577 331.27 430.577 299.528C430.577 267.786 334.189 242.055 215.289 242.055C96.3879 242.055 0 267.786 0 299.528C0 331.27 96.3879 357.002 215.289 357.002Z" fill="#FDF2F1"></path><path d="M145.828 232.661V73.8294C145.828 68.3697 150.254 63.9434 155.714 63.9434H387.092C392.552 63.9434 396.978 68.3697 396.978 73.8294V232.661H145.828Z" fill="#BCCBD3"></path><path d="M387.753 73.1602H155.043V223.437H387.753V73.1602Z" fill="#1A7898"></path><path d="M409.865 232.912V238.874C409.865 239.908 409.733 240.912 409.486 241.868C408.157 247.021 403.478 250.824 397.912 250.824H144.89C139.324 250.824 134.648 247.021 133.316 241.868C133.07 240.912 132.938 239.908 132.938 238.874V232.912H409.865Z" fill="#999999"></path><path d="M409.489 241.869C408.159 247.022 403.481 250.825 397.915 250.825H144.89C139.324 250.825 134.648 247.022 133.316 241.869H409.489Z" fill="#808080"></path><path d="M377.735 61.5716V179.159C377.735 188.83 369.893 196.669 360.222 196.669H182.595C172.924 196.669 165.082 188.833 165.082 179.159V61.5716C165.082 51.9008 172.924 44.0586 182.595 44.0586H360.22C369.893 44.0586 377.735 51.9008 377.735 61.5716Z" fill="#A3E3F8"></path><path d="M377.736 69.6211V179.16C377.736 188.831 369.894 196.67 360.223 196.67H182.599C178.107 196.67 174.01 194.979 170.916 192.198C167.339 188.997 165.086 184.341 165.086 179.16V69.6211H377.736Z" fill="#DEF3FA"></path><path d="M347.705 163.592H241.984V173.064H347.705V163.592Z" fill="white"></path><path d="M347.705 176.428H241.984V185.9H347.705V176.428Z" fill="white"></path><path d="M216.071 136.911H134.301C129.166 136.911 125.004 132.749 125.004 127.613V127.01C125.004 121.875 129.166 117.713 134.301 117.713H216.071C221.206 117.713 225.369 121.875 225.369 127.01V127.613C225.369 132.749 221.206 136.911 216.071 136.911Z" fill="#A3E3F8"></path><path d="M143.856 121.389L145.779 125.287L150.079 125.91L146.968 128.944L147.703 133.227L143.856 131.206L140.01 133.227L140.744 128.944L137.633 125.91L141.933 125.287L143.856 121.389Z" fill="#FFC32D"></path><path d="M159.524 121.389L161.447 125.287L165.747 125.91L162.636 128.944L163.371 133.227L159.524 131.206L155.678 133.227L156.412 128.944L153.301 125.91L157.601 125.287L159.524 121.389Z" fill="#FFC32D"></path><path d="M175.188 121.389L177.111 125.287L181.411 125.91L178.3 128.944L179.035 133.227L175.188 131.206L171.342 133.227L172.076 128.944L168.965 125.91L173.265 125.287L175.188 121.389Z" fill="#FFC32D"></path><path d="M190.848 121.389L192.772 125.287L197.072 125.91L193.96 128.944L194.695 133.227L190.848 131.206L187.002 133.227L187.737 128.944L184.625 125.91L188.925 125.287L190.848 121.389Z" fill="#FFC32D"></path><path d="M206.512 121.389L208.436 125.287L212.736 125.91L209.624 128.944L210.359 133.227L206.512 131.206L202.666 133.227L203.401 128.944L200.289 125.91L204.589 125.287L206.512 121.389Z" fill="#FFC32D"></path><path d="M150.091 193.802L150.074 170.335L228.807 136.472V99.8844L373.67 31.8848L382.646 51.0081L249.931 113.307V150.293L150.091 193.802Z" fill="#7AB7AF"></path><path d="M412.793 26.2718L359.496 24.4375L377.17 43.1016L380.362 68.6061L412.793 26.2718Z" fill="#7AB7AF"></path><path d="M259.684 122.872L269.03 118.486V158.079H259.684V122.872Z" fill="#1A7898"></path><path d="M278.855 113.871L288.819 109.195V158.077H278.855V113.871Z" fill="#1A7898"></path><path d="M298.645 104.584L308.611 99.9082V158.079H298.645V104.584Z" fill="#1A7898"></path><path d="M318.434 95.3L328.397 90.6211V158.081H318.434V95.3Z" fill="#1A7898"></path><path d="M348.113 81.3652V158.08H338.219V86.0097L348.113 81.3652Z" fill="#1A7898"></path><path d="M239.951 63.5423C239.951 88.7541 219.513 109.192 194.298 109.192C184.464 109.192 175.353 106.08 167.898 100.79C160.153 95.2902 154.2 87.4393 151.077 78.2767V78.2738C149.501 73.6523 148.648 68.6978 148.648 63.5452C148.648 46.1987 158.328 31.1084 172.58 23.3867L196.041 63.5452H196.155H239.951V63.5423Z" fill="#FFC22D"></path><path d="M246.142 63.5433H196.16V11.498C223.952 12.6061 246.142 35.4812 246.142 63.5433Z" fill="#DC5147"></path><path d="M194.218 0.0516671V54.9617L172.181 17.2432L165.938 6.55339C173.688 2.37392 182.558 0 191.985 0C192.728 0 193.477 0.0200915 194.218 0.0516671Z" fill="#7AB6AE"></path><path d="M196.154 63.543L167.899 100.788C160.155 95.288 154.201 87.4371 151.078 78.2744V78.2716L196.154 63.543Z" fill="#1A7898"></path><path d="M94.4474 123.504C94.4474 123.504 99.0631 126.765 101.466 132.339C103.868 137.914 109.825 157.611 111.269 159.629C112.71 161.647 135.197 175.678 135.197 175.678L133.274 183.03C133.274 183.03 107.135 181.925 97.8145 171.929C88.4939 161.937 94.4474 123.504 94.4474 123.504Z" fill="#1A7898"></path><path d="M98.3758 127.32L93.648 129.815C93.6251 130.016 93.605 130.217 93.582 130.423L98.6973 127.725C98.5911 127.584 98.482 127.449 98.3758 127.32Z" fill="#F4EAE1"></path><path d="M101.748 133.021L92.9503 137.663C92.936 137.861 92.9245 138.059 92.9102 138.257L101.938 133.495C101.872 133.329 101.809 133.174 101.748 133.021Z" fill="#F4EAE1"></path><path d="M104.15 139.658L92.6052 145.27C92.6024 145.46 92.5966 145.649 92.5938 145.838L104.314 140.14C104.26 139.98 104.205 139.819 104.15 139.658Z" fill="#F4EAE1"></path><path d="M106.525 146.723L92.7266 153.764C92.738 153.948 92.7467 154.134 92.7582 154.318L106.689 147.211C106.634 147.047 106.58 146.883 106.525 146.723Z" fill="#F4EAE1"></path><path d="M108.906 153.73L93.6172 161.733C93.6488 161.909 93.6832 162.081 93.7176 162.256L109.075 154.216C109.02 154.055 108.963 153.894 108.906 153.73Z" fill="#F4EAE1"></path><path d="M112.278 160.566L96.9375 170.851C97.0351 170.992 97.1384 171.124 97.2418 171.259L112.697 160.897C112.547 160.779 112.41 160.67 112.278 160.566Z" fill="#F4EAE1"></path><path d="M118.27 164.795L103.949 176.366C104.113 176.452 104.279 176.535 104.446 176.616L118.712 165.091C118.566 164.99 118.417 164.893 118.27 164.795Z" fill="#F4EAE1"></path><path d="M123.461 168.211L112.266 179.59C112.449 179.644 112.636 179.696 112.82 179.75L123.894 168.495C123.751 168.398 123.607 168.303 123.461 168.211Z" fill="#F4EAE1"></path><path d="M129.342 171.992L125.688 182.32C125.863 182.343 126.032 182.366 126.201 182.386L129.778 172.273C129.637 172.179 129.491 172.087 129.342 171.992Z" fill="#F4EAE1"></path><path d="M62.6387 91.0906C62.6387 91.0906 60.681 86.0011 54.7046 87.8239C48.7282 89.6467 47.2843 93.3583 47.491 96.8603C47.7924 102.004 52.1268 103.557 50.7892 107.886C49.4515 112.215 44.3506 118.524 48.8832 125.534H63.8242C63.8242 125.534 70.966 116.48 63.9792 96.447L62.6387 91.0906Z" fill="#29363C"></path><path d="M77.0189 112.116V119.602H69.7422V110.244L77.0189 112.116Z" fill="#E8977C"></path><path d="M77.0222 115.079V118.041C77.0222 118.041 72.6963 117.418 71.8323 114.924C71.6572 114.924 77.0222 115.079 77.0222 115.079Z" fill="black"></path><path d="M74.4244 115.442C80.4534 115.442 85.3409 110.555 85.3409 104.526C85.3409 98.4969 80.4534 93.6094 74.4244 93.6094C68.3953 93.6094 63.5078 98.4969 63.5078 104.526C63.5078 110.555 68.3953 115.442 74.4244 115.442Z" fill="#E8977C"></path><path d="M63.271 103.662H66.0439C66.0439 103.662 69.0379 102.322 69.0379 99.0262C69.0379 99.0262 73.3637 102.942 78.1317 99.0262C78.1317 99.0262 83.8038 103.441 87.1135 97.9957C91.1695 91.3218 81.5275 84.3952 74.4287 88.0034C74.4287 88.0034 63.0816 84.4928 59.858 93.6124C57.4697 100.37 63.271 103.662 63.271 103.662Z" fill="#29363C"></path><path d="M62.4533 108.684C63.888 108.684 65.0511 106.822 65.0511 104.525C65.0511 102.227 63.888 100.365 62.4533 100.365C61.0186 100.365 59.8555 102.227 59.8555 104.525C59.8555 106.822 61.0186 108.684 62.4533 108.684Z" fill="#E8977C"></path><path d="M70.5172 230.254L69.9492 230.338L82.3732 314.581L82.9411 314.497L70.5172 230.254Z" fill="black"></path><path d="M33.8 230.239L21.4102 314.49L21.9782 314.574L34.3681 230.323L33.8 230.239Z" fill="black"></path><path d="M51.7844 232.931C68.4193 232.931 81.9047 228.38 81.9047 222.766C81.9047 217.152 68.4193 212.602 51.7844 212.602C35.1494 212.602 21.6641 217.152 21.6641 222.766C21.6641 228.38 35.1494 232.931 51.7844 232.931Z" fill="#7AB6AE"></path><path d="M77.1095 169.923C76.9947 169.923 76.8856 169.854 76.8425 169.742L64.3128 137.836C64.2553 137.69 64.3271 137.523 64.4735 137.463C64.6199 137.406 64.7864 137.477 64.8467 137.624L77.3765 169.53C77.4339 169.676 77.3621 169.843 77.2157 169.903C77.1813 169.917 77.144 169.923 77.1095 169.923Z" fill="#F4EAE1"></path><path d="M142.477 287.531L145.973 302.599L145.835 305.231L161.08 305.495L160.305 302.521L156.611 288.324L142.477 287.531Z" fill="#E9987C"></path><path d="M145.711 302.52V314.406L176.962 314.538C176.962 314.538 178.131 310.841 175.406 309.125C172.682 307.408 160.365 302.784 160.365 302.784C160.365 302.784 160.107 304.896 157.124 304.896C154.139 305.028 145.711 302.52 145.711 302.52Z" fill="#333333"></path><path d="M145.643 313.374C145.485 313.374 145.355 313.245 145.355 313.087C145.355 312.929 145.482 312.8 145.643 312.8L177.204 312.668C177.362 312.668 177.491 312.797 177.491 312.955C177.491 313.113 177.365 313.242 177.204 313.242L145.643 313.374Z" fill="white"></path><path d="M151.803 313.616C151.154 310.711 149.079 307.407 145.838 307.539C145.58 307.539 145.58 307.935 145.838 307.935C148.95 307.803 150.896 310.972 151.416 313.745C151.416 314.012 151.803 313.88 151.803 313.616Z" fill="white"></path><path d="M165.81 305.691C164.903 306.748 163.864 307.672 162.957 308.728C162.828 308.86 163.086 309.257 163.215 308.993C164.122 307.936 165.162 307.012 166.069 305.955C166.201 305.691 165.94 305.427 165.81 305.691Z" fill="white"></path><path d="M162.96 304.235C161.923 305.424 160.755 306.48 159.719 307.668C159.59 307.8 159.848 308.197 159.977 307.932C161.013 306.744 162.182 305.688 163.218 304.499C163.35 304.367 163.089 304.103 162.96 304.235Z" fill="white"></path><path d="M58.1081 194.705C58.1081 194.705 55.8347 205.34 58.3292 212.433C60.8236 219.526 69.1797 223.244 74.5648 223.244C79.9499 223.244 109.209 223.244 109.209 223.244L130.83 292.145H169.892C169.892 292.145 152.651 231.577 149.858 222.67C146.83 213.013 141.054 194.705 127.658 194.705C118.977 194.705 58.1081 194.705 58.1081 194.705Z" fill="#FFC32D"></path><path d="M115.656 287.408L119.153 302.476L119.015 305.108L134.26 305.372L133.485 302.398L129.791 288.203L115.656 287.408Z" fill="#E9987C"></path><path d="M118.895 302.402V314.289L150.146 314.421C150.146 314.421 151.314 310.724 148.59 309.007C145.866 307.291 133.548 302.666 133.548 302.666C133.548 302.666 133.29 304.779 130.308 304.779C127.325 304.911 118.895 302.402 118.895 302.402Z" fill="#333333"></path><path d="M118.83 313.255C118.672 313.255 118.543 313.126 118.543 312.968C118.543 312.81 118.669 312.681 118.83 312.681L150.391 312.549C150.549 312.549 150.678 312.678 150.678 312.836C150.678 312.994 150.552 313.123 150.391 313.123L118.83 313.255Z" fill="white"></path><path d="M124.979 313.497C124.33 310.592 122.255 307.288 119.014 307.42C118.756 307.42 118.756 307.816 119.014 307.816C122.126 307.684 124.072 310.853 124.591 313.626C124.591 313.893 124.979 313.761 124.979 313.497Z" fill="white"></path><path d="M138.99 305.572C138.083 306.629 137.044 307.553 136.137 308.609C136.008 308.741 136.266 309.137 136.395 308.873C137.302 307.817 138.341 306.893 139.248 305.836C139.38 305.572 139.119 305.308 138.99 305.572Z" fill="white"></path><path d="M136.135 304.114C135.099 305.303 133.931 306.359 132.895 307.547C132.765 307.679 133.024 308.075 133.153 307.811C134.189 306.623 135.357 305.567 136.394 304.378C136.526 304.246 136.267 303.982 136.135 304.114Z" fill="white"></path><path d="M130.962 183.027H107.754V185.826H130.962V183.027Z" fill="#808080"></path><path d="M138.856 145.377H192.136L181.92 185.797H128.941L138.856 145.377Z" fill="#BCCBD3"></path><path d="M162.674 165.592C166.551 165.592 169.695 164.025 169.695 162.093C169.695 160.16 166.551 158.594 162.674 158.594C158.796 158.594 155.652 160.16 155.652 162.093C155.652 164.025 158.796 165.592 162.674 165.592Z" fill="white"></path><path d="M37.2058 187.25C37.2058 187.25 34.9323 205.337 37.4268 212.433C39.9213 219.529 48.2774 223.243 53.6624 223.243C59.0447 223.243 88.3067 223.243 88.3067 223.243L109.927 292.144H148.989C148.989 292.144 131.749 231.576 128.956 222.669C125.928 213.013 120.152 194.705 106.755 194.705C103.159 194.705 104.232 187.25 104.232 187.25H37.2058Z" fill="#FFC32D"></path><path d="M104.233 175.493C104.075 175.493 103.949 175.367 103.946 175.209C103.759 161.829 102.49 150.982 101.46 144.242C100.343 136.936 99.2524 132.743 99.2438 132.699C99.2036 132.547 99.2955 132.389 99.4476 132.349C99.5998 132.309 99.7576 132.401 99.7978 132.553C99.8093 132.596 100.903 136.81 102.025 144.141C103.062 150.904 104.333 161.781 104.52 175.2C104.523 175.358 104.396 175.49 104.236 175.49C104.236 175.493 104.233 175.493 104.233 175.493Z" fill="#F4EAE1"></path><path d="M148.983 292.436C148.857 292.436 148.742 292.352 148.707 292.226C148.535 291.62 131.435 231.558 128.677 222.757C125.634 213.054 119.971 194.996 106.752 194.996C106.594 194.996 106.465 194.867 106.465 194.709C106.465 194.551 106.594 194.422 106.752 194.422C120.393 194.422 126.139 212.744 129.225 222.587C131.987 231.397 149.089 291.465 149.261 292.071C149.304 292.223 149.215 292.381 149.063 292.427C149.037 292.433 149.012 292.436 148.983 292.436Z" fill="#F4EAE1"></path><path d="M167.973 284H107.764C107.606 284 107.477 283.871 107.477 283.713C107.477 283.555 107.606 283.426 107.764 283.426H167.97C168.128 283.426 168.257 283.555 168.257 283.713C168.257 283.871 168.131 284 167.973 284Z" fill="#F4EAE1"></path><path d="M71.3651 117.013C54.0674 117.107 46.2854 122.923 43.0418 130.274C39.7981 137.626 37.2031 187.251 37.2031 187.251H104.23C104.23 187.251 104.23 139.925 97.527 127.246C94.335 121.212 84.5551 116.941 71.3651 117.013Z" fill="#1A7898"></path><path d="M90.5376 120.91H51.9636C51.6507 121.074 51.3464 121.243 51.0508 121.418H91.4647C91.1633 121.243 90.8562 121.074 90.5376 120.91Z" fill="#F4EAE1"></path><path d="M97.7585 127.688H44.4301C44.3239 127.857 44.2177 128.023 44.1172 128.196H97.9938C97.9163 128.02 97.836 127.854 97.7585 127.688Z" fill="#F4EAE1"></path><path d="M99.9946 134.467H41.9385C41.9069 134.633 41.8753 134.803 41.8438 134.975H100.115C100.075 134.803 100.035 134.633 99.9946 134.467Z" fill="#F4EAE1"></path><path d="M101.293 141.248H40.8913C40.8712 141.417 40.8482 141.584 40.8281 141.756H101.37C101.344 141.587 101.318 141.417 101.293 141.248Z" fill="#F4EAE1"></path><path d="M102.206 148.025H40.1259C40.1087 148.195 40.0914 148.364 40.0742 148.533H102.264C102.244 148.361 102.224 148.192 102.206 148.025Z" fill="#F4EAE1"></path><path d="M102.871 154.803H39.4756C39.4613 154.972 39.4469 155.141 39.4297 155.311H102.914C102.9 155.141 102.885 154.972 102.871 154.803Z" fill="#F4EAE1"></path><path d="M103.378 161.58H38.9152C38.9008 161.749 38.8894 161.919 38.875 162.088H103.41C103.398 161.919 103.387 161.749 103.378 161.58Z" fill="#F4EAE1"></path><path d="M103.745 168.361H38.4006C38.3891 168.531 38.3776 168.7 38.3633 168.869H103.768C103.762 168.7 103.754 168.531 103.745 168.361Z" fill="#F4EAE1"></path><path d="M104.011 175.139H37.9407C37.9292 175.308 37.9177 175.477 37.9062 175.647H104.029C104.023 175.477 104.017 175.311 104.011 175.139Z" fill="#F4EAE1"></path><path d="M104.179 181.918H37.517C37.5055 182.09 37.4969 182.26 37.4883 182.426H104.19C104.185 182.26 104.182 182.09 104.179 181.918Z" fill="#F4EAE1"></path><path d="M100.801 175.962C100.801 175.962 113.196 174.136 115.598 173.849C118.001 173.562 125.303 178.749 127.227 179.998C129.15 181.247 127.132 182.208 125.209 181.631C125.209 181.631 127.804 183.17 126.747 183.555C125.691 183.939 122.424 183.555 122.424 183.555C122.424 183.555 124.135 184.996 123.375 185.38C122.617 185.765 118.098 185.188 111.852 183.026L100.801 184.427V175.962Z" fill="#E9987C"></path><path d="M57.162 118.826C57.162 118.826 42.9472 121.094 38.9112 134.163C34.5395 148.324 40.8575 159.051 44.4858 164.433C47.5142 168.925 59.091 182.018 61.9758 183.843C64.8578 185.669 68.3168 185.827 73.6043 185.827C78.8889 185.827 102.72 185.827 102.72 185.827V174.523L77.1149 169.631L57.162 118.826Z" fill="#1A7898"></path><path d="M102.711 174.811C102.693 174.811 102.676 174.808 102.656 174.806L77.0511 169.914C76.9535 169.897 76.8731 169.828 76.8386 169.736L64.3088 137.83C64.2514 137.684 64.3232 137.518 64.4696 137.457C64.616 137.4 64.7825 137.472 64.8428 137.618L77.3151 169.377L102.762 174.24C102.917 174.269 103.021 174.421 102.989 174.576C102.966 174.717 102.845 174.811 102.711 174.811Z" fill="#F4EAE1"></path><path d="M102.717 186.119H73.5986C68.4144 186.119 64.7947 185.978 61.818 184.092C58.9389 182.27 47.3764 169.246 44.2447 164.599C44.1557 164.467 44.1902 164.289 44.3222 164.2C44.4543 164.111 44.6322 164.145 44.7212 164.277C47.7496 168.77 59.3608 181.856 62.1251 183.607C64.9727 185.41 68.5149 185.545 73.5986 185.545H102.714C102.872 185.545 103.001 185.674 103.001 185.832C103.001 185.99 102.875 186.119 102.717 186.119Z" fill="#F4EAE1"></path><path d="M87.2669 199.129L321.254 199.129L321.254 185.81L87.2669 185.81L87.2669 199.129Z" fill="#1C2628"></path><path d="M262.235 316.209C262.209 316.209 262.183 316.206 262.154 316.197C262.002 316.154 261.913 315.993 261.956 315.841L295.647 197.78C295.682 197.656 295.797 197.57 295.923 197.57C296.052 197.57 296.164 197.656 296.198 197.78L329.433 315.247C329.476 315.399 329.387 315.557 329.235 315.6C329.083 315.643 328.925 315.554 328.882 315.402L295.923 198.905L262.507 315.993C262.476 316.125 262.361 316.209 262.235 316.209Z" fill="#1C2628"></path><path d="M225.235 316.209C225.209 316.209 225.183 316.206 225.154 316.197C225.002 316.154 224.913 315.993 224.956 315.841L258.647 197.78C258.682 197.656 258.797 197.57 258.923 197.57C259.052 197.57 259.164 197.656 259.198 197.78L292.433 315.247C292.476 315.399 292.387 315.557 292.235 315.6C292.083 315.643 291.925 315.554 291.882 315.402L258.923 198.905L225.507 315.993C225.476 316.125 225.361 316.209 225.235 316.209Z" fill="#1C2628"></path><path d="M106.962 316.209C106.936 316.209 106.911 316.206 106.885 316.197C106.733 316.154 106.644 315.993 106.687 315.841L140.378 197.78C140.412 197.656 140.527 197.57 140.653 197.57C140.783 197.57 140.895 197.656 140.929 197.78L174.164 315.247C174.207 315.399 174.118 315.557 173.966 315.6C173.811 315.643 173.656 315.554 173.613 315.402L140.653 198.905L107.238 315.993C107.203 316.125 107.086 316.209 106.962 316.209Z" fill="#1C2628"></path><path d="M69.9622 316.209C69.9364 316.209 69.9105 316.206 69.8847 316.197C69.7326 316.154 69.6436 315.993 69.6866 315.841L103.378 197.78C103.412 197.656 103.527 197.57 103.653 197.57C103.783 197.57 103.895 197.656 103.929 197.78L137.164 315.247C137.207 315.399 137.118 315.557 136.966 315.6C136.811 315.643 136.656 315.554 136.613 315.402L103.653 198.905L70.2378 315.993C70.2004 316.125 70.0856 316.209 69.9622 316.209Z" fill="#1C2628"></path><path d="M58.1575 121.347L57.9882 120.916C57.9336 120.916 57.882 120.927 57.8332 120.962L38.5663 135.386C38.4945 135.647 38.4342 135.909 38.3711 136.167L58.1374 121.37C58.1461 121.361 58.1489 121.352 58.1575 121.347Z" fill="#F4EAE1"></path><path d="M60.7476 127.963C60.7275 127.972 60.7045 127.977 60.6873 127.992L37.4648 145.329C37.4763 145.533 37.4907 145.731 37.505 145.932L60.937 128.439L60.7476 127.963Z" fill="#F4EAE1"></path><path d="M63.252 134.342L38.7148 152.653C38.7665 152.828 38.8182 152.997 38.8727 153.169L63.4443 134.833L63.252 134.342Z" fill="#F4EAE1"></path><path d="M66.0119 141.373L41.1016 158.714C41.1791 158.869 41.2566 159.018 41.3341 159.17L66.2042 141.858L66.0119 141.373Z" fill="#F4EAE1"></path><path d="M68.7289 148.295L45.1562 165.392C45.2538 165.524 45.3543 165.659 45.4605 165.799L68.9241 148.783L68.7289 148.295Z" fill="#F4EAE1"></path><path d="M71.4683 155.262L49.8906 171.259C49.9997 171.388 50.1117 171.517 50.2207 171.647L71.6606 155.753L71.4683 155.262Z" fill="#F4EAE1"></path><path d="M74.1235 162.018L56.332 178.471C56.4497 178.595 56.5645 178.718 56.6794 178.842L74.3215 162.526L74.1235 162.018Z" fill="#F4EAE1"></path><path d="M76.7984 168.838L62.8391 184.261C62.8248 184.278 62.8162 184.298 62.8047 184.319C62.9568 184.396 63.1118 184.471 63.2697 184.542L77.0023 169.366L76.7984 168.838Z" fill="#F4EAE1"></path><path d="M83.4103 170.837L82.8878 170.736L72.1837 185.68C72.1521 185.723 72.1435 185.772 72.1406 185.821C72.3272 185.824 72.5109 185.824 72.7032 185.827L83.3672 170.937C83.393 170.906 83.4045 170.871 83.4103 170.837Z" fill="#F4EAE1"></path><path d="M89.1082 171.928L86.5247 185.784C86.5218 185.801 86.5247 185.815 86.5247 185.83C86.6941 185.83 86.8634 185.83 87.0328 185.83L89.6076 172.022L89.1082 171.928Z" fill="#F4EAE1"></path><path d="M96.9792 173.586C96.8385 173.586 96.7266 173.701 96.7266 173.839V185.493C96.7266 185.633 96.8414 185.745 96.9792 185.745C97.1198 185.745 97.2318 185.631 97.2318 185.493V173.839C97.2346 173.701 97.1198 173.586 96.9792 173.586Z" fill="#F4EAE1"></path></svg>